<?xml version="1.0" encoding="UTF-8"?>
<svg id="Layer_1" data-name="Layer 1" xmlns="http://www.w3.org/2000/svg" viewBox="0 0 1026.33 1234.04">
  <defs>
    <style>
      .cls-1 {
        fill: #fff;
        stroke-width: 0px;
      }
    </style>
  </defs>
  <path class="cls-1" d="m700.76,886.61c-1.78.77-2.87,2.5-2.83,4.06.14,5.06-3.22,6.23-7.04,7.39-14.8,4.49-29.6,9.01-44.33,13.73-3.55,1.14-4.7.11-4.93-3.36-1.58-23.24-7.08-45.45-18.02-66.12-2.02-3.81-1.92-6.93.61-10.51,4.04-5.74,8.53-11.17,12.01-17.34,1.04-1.85,1.05-3.97,2.31-5.62,2.23,1.23,2.66-.95,3.4-2,14.84-21.31,29.62-42.67,44.41-64.03,2.73-3.95,3.86-8.38,4.06-13.13.93-22.16,3.58-44.11,8.74-65.69.81-3.37-.84-4.02-3.19-4.47-16.51-3.17-33.03-6.24-49.53-9.43-6.06-1.18-12.09-2.54-18.11-3.95-6.52-1.53-6.83-1.91-4.77-8.39,2.3-7.21,5.05-14.27,7.46-21.45,5.16-15.34,10.14-30.74,15.34-46.06,8.96-26.42,18.27-52.73,26.98-79.23,7.59-23.07,15.03-46.19,23.02-69.13,1.81-5.21,4.28-5.61,8.86-4.02,26.32,9.15,52.64,18.28,79.07,27.09,18.75,6.25,37.64,12.07,56.53,17.85,4.33,1.32,4.92,2.55,3.14,7.08-6.3,16.01-11.79,32.35-17.61,48.55-9.37,26.04-18.15,52.29-28.31,78.03-1.03,2.6-.87,4.65.91,6.66.34.39.71.76,1.11,1.08,9.86,7.96,9.47,18.06,7.18,29.31-2.66,13.08-3.99,26.44-5.89,39.68-1.08,7.47-1.81,15.02-3.35,22.39-1.08,5.18-5.9,7.99-9.52,11.32-14.71,13.57-29.2,27.35-43.4,41.44-6.01,5.96-7.56,13.82-9.9,21.31-7.17,22.97-13.91,46.08-21.05,69.05-4.29,13.8-7.85,27.84-12.99,41.39-.73,1.92-1.34,4.3-.36,6.54Z"/>
  <path class="cls-1" d="m789.91,358.59c6.92,11.61,14.18,23.04,20.68,34.88,6.63,12.06,13.91,23.73,20.65,35.71,3.53,6.27,6.86,12.65,10.18,19.03.66,1.27,2.16,2.74.68,4.19-1.25,1.23-2.59-.08-3.77-.62-16.96-7.63-34.66-13.36-51.91-20.24-6.07-2.42-12.04-5.11-18.13-7.49-3.04-1.19-3.99-3.33-3.09-6.12,6.34-19.62,12.83-39.18,20.53-58.32.97-2.05,1.91-4.2,4.16-1.01Z"/>
  <path class="cls-1" d="m700.76,886.61c-2.84-.32-3.59,1.91-4,3.81-.81,3.73-3.17,5.43-6.59,6.42-14.06,4.1-27.98,8.65-41.97,12.98-3.66,1.13-4.86.13-5.22-3.64-2.1-22.15-7.04-43.55-17.59-63.34-2.36-4.43-1.8-8.05,1.12-11.91,3.74-4.94,7.52-9.87,10.6-15.28,1.21-2.13,2.4-4.23,1.42-6.81-2.42-3.12-4.92-6.19-7.24-9.38-13.14-18.09-25.81-36.54-39.46-54.23-15.03-19.48-29.04-39.7-43.89-59.31-9.73-12.85-19.16-26-28.54-39.16-13.46-18.9-27.99-37.05-41.52-55.91-13.13-18.3-26.24-36.6-39.75-54.61-3.9-5.2-3.71-6.06,2.16-8.38,24.67-9.71,48.83-20.47,71.79-33.85,25.69-14.97,49.65-31.97,69.86-54.14,9.59-10.53,17.66-21.95,25.17-33.91,9.11-14.49,16.33-29.91,22.37-45.9,10.68-28.27,17.51-57.35,17.31-87.74-.08-12.23.23-24.44-.74-36.71-1.51-19.17-6.12-37.51-12.29-55.52-7.61-22.2-19.98-41.7-34.17-60.33-17.7-23.22-40.22-39.82-66.53-51.68-24.75-11.15-51.2-16.24-77.89-18.26-28.11-2.12-56.41-.8-84.22,5.02-24.1,5.04-47.33,12.38-68.67,25.23-18.71,11.27-35.07,25.06-48.9,41.92-6.23,7.6-11.58,15.8-16.94,24.04-11.2,17.21-18.22,36.26-24.64,55.5-4.5,13.5-5.82,27.82-8.45,41.78-1.9,10.06-2.31,20.53-2.22,30.81.16,18.19.87,36.32,3.52,54.47,2.8,19.17,5.69,38.2,11.29,56.77,7.59,25.14,18.28,48.94,31.15,71.77,6.59,11.7,13.64,23.13,20.5,34.68,7.46,12.56,15.93,24.47,24.4,36.35,6.58,9.22,13.49,18.22,20.39,27.2,2.35,3.06,1.48,4.31-1.83,5.47-7.6,2.66-15.28,5.2-22.61,8.51-18.98,8.59-37.85,17.4-55.72,28.23-24.96,15.13-48.03,32.58-67.7,54.25-8.68,9.56-16.33,19.87-23.69,30.54-11.03,15.98-19.44,33.25-26.51,51.05-4.97,12.51-8.68,25.67-11.44,39.04-3.95,19.16-7.95,38.33-8.58,57.89-1.13,35.47.04,70.81,7.01,105.83,3.47,17.45,8.01,34.58,14.02,51.21,5.37,14.85,12.23,29.14,19.95,43.04,10.76,19.37,23.48,37.22,38.47,53.42,9.59,10.36,20.08,19.77,31.72,27.95,10.7,7.52,21.36,15.06,33.14,20.74,22.21,10.72,45.29,18.82,69.59,23.62,16.04,3.17,32.16,5.72,48.41,6.19,16.51.47,33.07.25,49.64-.49,18.53-.83,36.49-4.24,54.32-8.42,23.01-5.39,44.74-14.02,65.68-25.48,23.99-13.13,44.84-30.06,64.75-48.27,21.14-19.35,39.24-41.51,55.66-65.01,1.45-2.08,2.64-2.84,4.6-.1,5.5,7.67,11.31,15.11,17,22.63,7.99,10.55,16.4,20.8,23.89,31.69,10.04,14.6,21.88,27.8,31.83,42.48,7.31,10.8,16.04,20.63,23.71,31.19,2.44,3.36,4.86,4.54,8.89,4.53,61.17-.12,122.35-.08,183.52-.08,1.21,0,2.42-.02,3.63-.02,1.59-.01,2.4-.66,2.76-2.37,2.32-10.87-2.18-19.09-12.43-23.75-16.66-7.57-34.31-9.7-52.28-10.08-3.75-.08-6.41-1.08-9.08-3.76-20.34-20.44-36.9-43.97-54.58-66.56-17.16-21.92-33.6-44.42-51.13-66.03-14.73-18.16-28.64-36.94-43.31-55.13M308.52,289.31c-2.77-22.52-3.48-45.05-2.62-67.57.8-20.9,3.58-41.6,9.64-61.89,5.54-18.56,13.22-35.88,24.58-51.46,9.55-13.11,21.43-24.07,36.02-31.17,13.92-6.78,28.75-10.57,44.56-11.47,15.78-.89,31.33-.29,46.45,3.6,13,3.34,24.77,9.76,35.33,18.55,17.53,14.6,28.07,33.57,36.24,54.3,7.92,20.11,12.69,40.86,15.01,62.38,2.05,18.97,3.34,37.9,2.81,58.44,1.08,13.72-.02,28.91-1.14,44.02-1.43,19.32-4.35,38.46-9.23,57.35-3.93,15.24-8.76,30.1-15.29,44.29-6.99,15.18-16.03,29.25-26.59,42.31-7.24,8.95-14.25,18.1-22.84,25.8-14.06,12.61-28.42,24.88-45.23,33.82-2.42,1.29-4.87,2.77-6.9,4.36-3.83,3-5.56,1.24-7.76-1.64-17.57-22.96-34.46-46.41-50.04-70.76-11.61-18.15-22.68-36.63-32.53-55.82-7.64-14.89-14.04-30.39-19.12-46.23-5.32-16.62-9.19-33.68-11.34-51.21Zm283.63,653.39c-8.09,33.64-21.74,64.99-38.44,95.13-6.35,11.46-12.33,23.15-20.56,33.41-11.81,14.71-25.39,27.81-40.45,39.13-12.76,9.6-25.81,19.11-40.43,25.71-15.34,6.92-31.66,6.42-48.16,6.65-14.72.21-29.76-1.61-44-5.31-13.97-3.63-27.59-8.81-40.26-15.7-14.34-7.8-27-17.98-38.31-29.99-17.15-18.2-28.79-39.56-38.87-62.17-9.22-20.68-15.13-42.34-19.47-64.32-3.17-16.09-5.42-32.51-5.64-49.05-.04-3.27-.81-6.49-1.23-9.7-.84-6.3-1.15-12.5-.96-18.86.33-11.14-.05-22.23-1.71-33.38-1.91-12.8,2.48-25.52,2.02-38.51-.72-20.41,2.55-40.59,5.87-60.68,3.5-21.21,8.64-42.01,16.84-61.92,5.44-13.22,12.32-25.73,19.38-38.15,7.6-13.36,16.8-25.65,25.93-37.88,10.51-14.09,22.91-26.64,36.5-37.92,3.67-3.04,6.49-3.4,9.6,1.03,6.22,8.85,12.89,17.39,19.34,26.08,17.52,23.62,35.01,47.25,52.54,70.86,11.17,15.04,22.71,29.81,33.46,45.15,6.31,9,13.1,17.6,19.58,26.45,9,12.29,18.23,24.41,27.22,36.7,17.13,23.42,34.54,46.63,51.85,69.92,8.71,11.72,18.11,22.98,26.09,35.21,9.49,14.55,21.46,27.25,30.66,42,2.08,3.33,2.55,6.27,1.62,10.16Z"/>
</svg>